# xmcd
#
# Track frame offsets:
# 150
# 18850
# 32201
# 41098
# 52285
# 69290
# 86824
# 97833
# 108499
# 124969
# 138129
# 148950
# 160167
# 170974
#
# Disc length: 2458 seconds
#
#
# Revision: 0
# Processed by: cddbd v1.5.1PL2 Copyright (c) Steve Scherf et al.
# Submitted via: FreeRIP 2.942 
#
DISCID=ca09980e
DTITLE=Pappo's Blues - El auto rojo
DYEAR=1999
DGENRE=Blues
TTITLE0=Cruzando América en un taxi
TTITLE1=No se inglés
TTITLE2=Auto rojo
TTITLE3=Dos caras
TTITLE4=Cuando dos trenes chocan
TTITLE5=El viento llora a Mary
TTITLE6=Cissy Strut
TTITLE7=Pueblo del norte
TTITLE8=Whisky malo
TTITLE9=Es algo de amor
TTITLE10=La isola
TTITLE11=Todavía sigo en pie
TTITLE12=La sombra maldita
TTITLE13=El reglamento
EXTD=Pappo\tGuitarra y voz\t\nYulie Ruth     Bajo\t\nBolsa González  Batería\t\nMúsicos invitado: \tMiguel Botafogo y Gabriel Carámbula
EXTT0=
EXTT1=
EXTT2=
EXTT3=
EXTT4=
EXTT5=
EXTT6=
EXTT7=
EXTT8=
EXTT9=
EXTT10=
EXTT11=
EXTT12=
EXTT13=
PLAYORDER=
